<svg xmlns="http://www.w3.org/2000/svg" viewBox="0 0 425 425"><path fill="#4A382C" d="M145 66.6C57.6 71.7 9.6 89.5 5 118.5c-12.7 79.7 38.9 198.1 99.5 228.2 34.9 17.4 109.2 18.6 145 2.4 16.8-7.7 35.9-26.7 52-51.9 4-6.2 4.1-6.3 12-8.7 49.5-15.2 82.2-38.4 99.3-70.5 27.7-51.8-5.8-101.4-56.7-84.1-11.3 3.8-10.8 4.3-11.3-9.4-1-24.5-17.6-37.4-61.8-48-32.9-7.8-96.1-12.3-138-9.9M218.1 80c76.9 5.9 121.6 24.5 110.5 45.8-21.8 41.7-262.3 45.7-303.4 5-22.8-22.5 22-43.7 107.3-50.7 14.7-1.2 70-1.3 85.6-.1m164.6 79.1c1.7.6 4.7 2.8 6.7 4.9 17.9 19.9-7.7 65.9-47.9 86-18.8 9.5-19.4 8.9-12.5-11.8 5.7-17.3 11.3-39.3 13-51.4 3-20.9 21.6-33.6 40.7-27.7"/><path fill="#2C1B12" d="M140.5 98.6c-2.2.2-9.8.9-17 1.4-57.6 4.7-92.9 17-74 25.9 45.4 21.3 194.6 22.3 247.5 1.6 24.2-9.5.6-20-61.2-27.1-12.6-1.4-84.8-2.8-95.3-1.8"/><g fill="#faf6f0" transform="translate(107.10 159.62) scale(2.6127)"><path d="M6 60.20Q4.20 60.20 2.75 58.70Q1.30 57.20 1.30 53.75Q1.30 50.95 1.95 48.25Q2.60 45.55 3.43 42.77Q4.25 40 4.83 37.02Q5.40 34.05 5.20 30.75Q3.85 30.95 2.55 31.45Q1.25 31.95 0 32.90Q0 29.75 0.55 27.77Q1.10 25.80 2.70 24.90Q4.30 24 7.45 24Q9.15 24 11.25 24.25Q13.35 24.50 15.58 24.75Q17.80 25 19.80 25Q21.75 25 23.30 24.63Q24.85 24.25 25.70 23.25Q26.70 23.90 27.23 25.02Q27.75 26.15 27.75 27.45Q27.75 28.80 27.13 30.07Q26.50 31.35 25.20 32.17Q23.90 33 21.80 33Q19.60 33 17 32.30Q14.40 31.60 11.65 31.10Q11.90 32.20 12.03 33.30Q12.15 34.40 12.15 35.55Q12.15 36.80 12.05 38.02Q11.95 39.25 11.75 40.55Q12.80 40 14.30 39.55Q15.80 39.10 17.38 38.80Q18.95 38.50 20.20 38.50Q21 38.50 21.60 38.65Q22.10 39.70 22.10 41.20Q22.10 43.60 20.90 46.10L20.55 46.25Q18.70 45.25 16.27 44.70Q13.85 44.15 11.20 43.95Q10.70 46.80 10.25 49.75Q9.80 52.70 9.80 55.80Q9.80 56.45 9.83 57.15Q9.85 57.85 9.90 58.55Q8.25 60.20 6 60.20ZM40.15 60.30Q37 60.30 34.73 59.02Q32.45 57.75 30.98 55.52Q29.50 53.30 28.83 50.48Q28.15 47.65 28.25 44.60Q28.45 39.15 30.25 35.20Q32.05 31.25 34.80 28.70Q37.55 26.15 40.73 24.92Q43.90 23.70 46.85 23.70Q49.35 23.70 51.38 24.52Q53.40 25.35 54.60 26.92Q55.80 28.50 55.80 30.75Q55.80 32.50 54.78 34.13Q53.75 35.75 51.67 36.77Q49.60 37.80 46.35 37.80Q46.90 36.20 47.15 35Q47.40 33.80 47.40 32.95Q47.40 31.20 46.60 30.57Q45.80 29.95 44.60 29.95Q43.15 29.95 41.85 31Q40.55 32.05 39.53 33.83Q38.50 35.60 37.90 37.75Q37.30 39.90 37.20 42.10Q37 47.65 38.80 50.50Q40.60 53.35 43.45 53.35Q45.65 53.35 48.33 51.55Q51 49.75 53.60 46.10L54.25 46.40Q53.60 50.90 51.40 54Q49.20 57.10 46.23 58.70Q43.25 60.30 40.15 60.30Z"/></g></svg>